<?xml version="1.0" encoding="UTF-8" standalone="no"?>
<!-- Created with Inkscape (http://www.inkscape.org/) -->

<svg
   xmlns:dc="http://purl.org/dc/elements/1.1/"
   xmlns:cc="http://creativecommons.org/ns#"
   xmlns:rdf="http://www.w3.org/1999/02/22-rdf-syntax-ns#"
   xmlns:svg="http://www.w3.org/2000/svg"
   xmlns="http://www.w3.org/2000/svg"
   xmlns:sodipodi="http://sodipodi.sourceforge.net/DTD/sodipodi-0.dtd"
   xmlns:inkscape="http://www.inkscape.org/namespaces/inkscape"
   width="500"
   height="500"
   viewBox="0 0 500 500"
   version="1.1"
   id="svg8"
   inkscape:version="0.92.2 (5c3e80d, 2017-08-06)"
   sodipodi:docname="icon.svg">
  <defs
     id="defs2" />
  <sodipodi:namedview
     id="base"
     pagecolor="#ffffff"
     bordercolor="#666666"
     borderopacity="1.0"
     inkscape:pageopacity="0.0"
     inkscape:pageshadow="2"
     inkscape:zoom="1"
     inkscape:cx="248.23832"
     inkscape:cy="250.8148"
     inkscape:document-units="px"
     inkscape:current-layer="layer1"
     showgrid="false"
     units="px"
     inkscape:pagecheckerboard="true"
     inkscape:showpageshadow="false"
     borderlayer="true"
     inkscape:window-width="1366"
     inkscape:window-height="705"
     inkscape:window-x="-8"
     inkscape:window-y="-8"
     inkscape:window-maximized="1" />
  <metadata
     id="metadata5">
    <rdf:RDF>
      <cc:Work
         rdf:about="">
        <dc:format>image/svg+xml</dc:format>
        <dc:type
           rdf:resource="http://purl.org/dc/dcmitype/StillImage" />
        <dc:title></dc:title>
      </cc:Work>
    </rdf:RDF>
  </metadata>
  <g
     inkscape:label="Layer 1"
     inkscape:groupmode="layer"
     id="layer1"
     transform="translate(0,-164.70832)">
    <path
       style="fill:none;stroke:#000000;stroke-width:4.67015839;stroke-linecap:butt;stroke-linejoin:miter;stroke-miterlimit:4;stroke-dasharray:none;stroke-opacity:1"
       d="m 102.3938,661.29149 294.28401,-0.52589 c 45.7274,3.33328 66.42148,-10.98967 56.51846,-46.89304 L 341.41283,267.73949 H 157.08876 L 45.291823,613.9143 c -6.873002,32.72486 4.762213,49.4404 57.101977,47.37719"
       id="path812"
       inkscape:connector-curvature="0"
       sodipodi:nodetypes="ccccccc" />
    <circle
       style="opacity:1;fill:#000000;fill-opacity:0;fill-rule:nonzero;stroke:#00ff00;stroke-width:9.20429516;stroke-miterlimit:4;stroke-dasharray:none;stroke-opacity:1"
       id="path844"
       cx="291.34625"
       cy="296.53439"
       r="41.930679" />
    <ellipse
       style="opacity:1;fill:none;fill-opacity:1;fill-rule:nonzero;stroke:#000000;stroke-width:13.07644272;stroke-miterlimit:4;stroke-dasharray:none;stroke-opacity:1"
       id="path814"
       cx="248.43633"
       cy="250.66911"
       rx="113.8156"
       ry="20.236032" />
    <path
       style="fill:none;stroke:#00ff00;stroke-width:0.93403167px;stroke-linecap:butt;stroke-linejoin:miter;stroke-opacity:1"
       d="m 89.094511,487.98259 c 24.346959,18.38152 51.024279,27.30272 85.361689,-2.75946 42.56585,32.27723 58.7472,13.37914 76.82552,-1.83964 25.83881,22.35193 53.86383,29.86245 87.25862,0.91982 20.90862,17.39234 44.29072,30.3926 70.18629,1.83964"
       id="path832"
       inkscape:connector-curvature="0"
       sodipodi:nodetypes="ccccc" />
    <path
       style="opacity:1;vector-effect:none;fill:#ffffff;fill-opacity:1;stroke:#00ff00;stroke-width:0.93550253;stroke-linecap:butt;stroke-linejoin:miter;stroke-miterlimit:4;stroke-dasharray:none;stroke-dashoffset:0;stroke-opacity:1"
       d="m 76.989867,657.71865 c -18.86275,-2.8511 -27.545611,-9.42656 -30.110584,-22.80247 -1.860653,-9.703 -0.226594,-16.06702 21.175215,-82.4693 11.087709,-34.40124 20.282838,-62.71005 20.433619,-62.90845 0.15078,-0.19839 3.592371,1.74803 7.647978,4.32539 22.192735,14.10357 40.992295,15.43549 61.428435,4.35209 3.46553,-1.87951 8.65118,-5.27375 11.52365,-7.54275 l 5.22268,-4.12547 8.00806,5.221 c 25.69406,16.75175 43.89967,15.64848 65.05252,-3.94223 l 3.48896,-3.23129 6.46991,4.7152 c 13.93377,10.15477 25.09944,14.34214 38.24342,14.34214 12.98951,0 23.7253,-3.9047 36.48258,-13.26903 l 6.32504,-4.64283 7.76144,5.42914 c 9.92771,6.94446 16.37379,10.04602 24.23522,11.66091 11.46143,2.3544 22.63118,-1.21977 33.6931,-10.78134 3.56078,-3.07783 5.46467,-4.19319 5.75926,-3.37399 5.67872,15.79126 41.62305,129.87999 42.34897,134.41721 2.22446,13.90407 -2.62608,24.75021 -13.46739,30.11401 -9.525,4.71254 -2.9833,4.53768 -185.81907,4.96694 -102.37737,0.24036 -172.503123,0.059 -175.903013,-0.45488 z"
       id="path836"
       inkscape:connector-curvature="0" />
    <path
       style="opacity:1;vector-effect:none;fill:#00ff00;fill-opacity:1;stroke:#00ff00;stroke-width:0.93550253;stroke-linecap:butt;stroke-linejoin:miter;stroke-miterlimit:4;stroke-dasharray:none;stroke-dashoffset:0;stroke-opacity:1"
       d="m 96.87068,656.87279 c -26.736925,-0.6117 -27.843717,-0.77185 -37.082294,-5.3654 -11.76473,-5.8496 -14.991739,-18.9209 -9.553009,-38.69535 4.525098,-16.45262 37.783418,-120.15385 38.874124,-121.21162 0.291493,-0.28269 4.07764,1.56419 8.413671,4.10414 8.569538,5.01989 15.475898,7.92965 22.385588,9.43138 5.88445,1.2789 16.79584,1.22098 22.57025,-0.11984 7.0929,-1.64696 17.56553,-6.77149 25.15702,-12.30999 l 6.82816,-4.9816 5.3068,3.45449 c 23.32661,15.18464 39.87842,16.91767 56.89952,5.95761 2.85575,-1.83886 7.20064,-5.16523 9.65532,-7.39195 l 4.46304,-4.04858 7.45413,5.19051 c 14.28332,9.94589 23.63412,13.26977 37.33073,13.26977 13.48945,0 23.28997,-3.42349 36.3945,-12.71321 l 6.51791,-4.62052 6.28634,4.41049 c 14.22369,9.9793 23.64693,13.43123 34.66496,12.69845 8.13144,-0.5408 15.1255,-3.38479 22.38033,-9.10046 2.86022,-2.25341 5.69877,-4.39179 6.30789,-4.75197 1.19675,-0.70764 2.70759,3.6683 19.15132,55.46909 23.15321,72.93697 24.12721,76.31035 24.16791,83.7036 0.0643,11.68676 -5.04405,19.72863 -15.33692,24.14415 -3.12363,1.34 -7.64138,1.99422 -17.59475,2.5479 -16.85694,0.93772 -287.13901,1.71829 -321.64254,0.92891 z"
       id="path838"
       inkscape:connector-curvature="0" />
    <ellipse
       style="opacity:1;fill:#000000;fill-opacity:0;fill-rule:nonzero;stroke:#00ff00;stroke-width:9.34031677;stroke-miterlimit:4;stroke-dasharray:none;stroke-opacity:1"
       id="path840"
       cx="336.6434"
       cy="456.19431"
       rx="20.866192"
       ry="20.236032" />
    <ellipse
       style="opacity:1;fill:#000000;fill-opacity:0;fill-rule:nonzero;stroke:#00ff00;stroke-width:9.34031677;stroke-miterlimit:4;stroke-dasharray:none;stroke-opacity:1"
       id="path842"
       cx="202.304"
       cy="421.09601"
       rx="40.309689"
       ry="39.092335" />
    <circle
       style="opacity:1;fill:#000000;fill-opacity:0;fill-rule:nonzero;stroke:#00ff00;stroke-width:8.1815958;stroke-miterlimit:4;stroke-dasharray:none;stroke-opacity:1"
       id="path846"
       cx="186.9855"
       cy="325.19269"
       r="12.272394" />
    <circle
       style="opacity:1;fill:#000000;fill-opacity:0;fill-rule:nonzero;stroke:#00ff00;stroke-width:9.20429516;stroke-miterlimit:4;stroke-dasharray:none;stroke-opacity:1"
       id="path848"
       cx="190.74655"
       cy="211.13899"
       r="37.328529" />
    <circle
       style="opacity:1;fill:#000000;fill-opacity:0;fill-rule:nonzero;stroke:#00ff00;stroke-width:8.1815958;stroke-miterlimit:4;stroke-dasharray:none;stroke-opacity:1"
       id="path850"
       cx="337.34503"
       cy="198.37794"
       r="17.385891" />
    <path
       style="fill:none;stroke:#00ff00;stroke-width:1.02269948px;stroke-linecap:butt;stroke-linejoin:miter;stroke-opacity:1"
       d="m 314.82294,499.0516 c 11.6601,-7.19767 8.22362,-20.78888 1.0227,-30.68098"
       id="path852"
       inkscape:connector-curvature="0"
       sodipodi:nodetypes="cc" />
    <path
       style="fill:none;stroke:#00ff00;stroke-width:1.02269948px;stroke-linecap:butt;stroke-linejoin:miter;stroke-opacity:1"
       d="m 359.82172,499.27624 c -9.24803,-6.78322 -11.37564,-20.98935 -1.55917,-30.68099"
       id="path854"
       inkscape:connector-curvature="0"
       sodipodi:nodetypes="cc" />
    <path
       style="opacity:1;vector-effect:none;fill:#00ff00;fill-opacity:1;stroke:#00ff00;stroke-width:0.70975345;stroke-linecap:butt;stroke-linejoin:miter;stroke-miterlimit:4;stroke-dasharray:none;stroke-dashoffset:0;stroke-opacity:1"
       d="m 318.58587,496.80111 c 1.32478,-1.40545 2.16057,-2.59398 2.87078,-4.08233 2.11372,-4.42964 2.03752,-9.58977 -0.23183,-15.69952 -0.2439,-0.65661 -0.44345,-1.2064 -0.44345,-1.22172 0,-0.0153 0.29142,0.18408 0.64759,0.44314 1.60481,1.16721 4.00715,2.47055 5.82823,3.162 1.7957,0.68181 3.85656,1.20573 5.94816,1.51217 1.60782,0.23557 5.29972,0.23557 6.90754,0 4.47877,-0.65618 8.44291,-2.2492 11.89006,-4.77809 0.41868,-0.30716 0.77413,-0.54558 0.78987,-0.52984 0.0157,0.0158 -0.10064,0.36441 -0.25869,0.7748 -0.3665,0.95177 -0.80875,2.61657 -1.02174,3.8461 -0.23478,1.35541 -0.23433,4.98264 7.6e-4,6.32778 0.5288,3.02532 1.56704,5.68218 3.16015,8.08691 0.39327,0.59361 0.6933,1.0793 0.66676,1.0793 -0.11267,0 -3.08487,-1.84593 -4.72195,-2.93264 -3.14063,-2.08477 -7.23683,-5.15733 -10.76501,-8.07482 l -1.3151,-1.08748 -1.27522,1.08397 c -5.8272,4.95322 -11.83889,9.02569 -17.51161,11.86278 -0.85683,0.42852 -1.58653,0.77913 -1.62156,0.77913 -0.0351,0 0.17028,-0.24824 0.45626,-0.55164 z"
       id="path860"
       inkscape:connector-curvature="0" />
  </g>
</svg>
